HIERARCHY
ROOT Hips
{
  OFFSET -50.1186 85.116 -81.9421
  CHANNELS 6 Xposition Yposition Zposition Zrotation Xrotation Yrotation
  JOINT Spine
  {
    OFFSET 0 10 0
    CHANNELS 6 Xposition Yposition Zposition Zrotation Xrotation Yrotation
    JOINT Neck
    {
      OFFSET 0 30 0
      CHANNELS 6 Xposition Yposition Zposition Zrotation Xrotation Yrotation
      JOINT Head
      {
        OFFSET 0 8 0
        CHANNELS 6 Xposition Yposition Zposition Zrotation Xrotation Yrotation
        End Site
        {
          OFFSET 0 10 0
        }
      }
    }
    JOINT LeftArm
    {
      OFFSET 15 30 0
      CHANNELS 6 Xposition Yposition Zposition Zrotation Xrotation Yrotation
      JOINT LeftForeArm
      {
        OFFSET 25 0 0
        CHANNELS 6 Xposition Yposition Zposition Zrotation Xrotation Yrotation
        JOINT LeftHand
        {
          OFFSET 25 0 0
          CHANNELS 6 Xposition Yposition Zposition Zrotation Xrotation Yrotation
          End Site
          {
            OFFSET 10 0 0
          }
        }
      }
    }
    JOINT RightArm
    {
      OFFSET -15 30 0
      CHANNELS 6 Xposition Yposition Zposition Zrotation Xrotation Yrotation
      JOINT RightForeArm
      {
        OFFSET -25 0 0
        CHANNELS 6 Xposition Yposition Zposition Zrotation Xrotation Yrotation
        JOINT RightHand
        {
          OFFSET -25 0 0
          CHANNELS 6 Xposition Yposition Zposition Zrotation Xrotation Yrotation
          End Site
          {
            OFFSET -10 0 0
          }
        }
      }
    }
  }
  JOINT LeftUpLeg
  {
    OFFSET 10 -10 0
    CHANNELS 6 Xposition Yposition Zposition Zrotation Xrotation Yrotation
    JOINT LeftLeg
    {
      OFFSET 0 -35 0
      CHANNELS 6 Xposition Yposition Zposition Zrotation Xrotation Yrotation
      JOINT LeftFoot
      {
        OFFSET 0 -40 0
        CHANNELS 6 Xposition Yposition Zposition Zrotation Xrotation Yrotation
        End Site
        {
          OFFSET 0 0 15
        }
      }
    }
  }
  JOINT RightUpLeg
  {
    OFFSET -10 -10 0
    CHANNELS 6 Xposition Yposition Zposition Zrotation Xrotation Yrotation
    JOINT RightLeg
    {
      OFFSET 0 -35 0
      CHANNELS 6 Xposition Yposition Zposition Zrotation Xrotation Yrotation
      JOINT RightFoot
      {
        OFFSET 0 -40 0
        CHANNELS 6 Xposition Yposition Zposition Zrotation Xrotation Yrotation
        End Site
        {
          OFFSET 0 0 15
        }
      }
    }
  }
}
MOTION
Frames:	10
Frame Time:	0.0166667
-58.5539 85.4188 -78.4175 0 0 -0 0 10 0 0 0 -0 0 30 0 0 0 -0 0 8 0 0 0 -0 15 30 0 -7.99999 4.82487e-07 1.75788e-05 25 0 0 -1.41036e-05 -4.82483e-07 -3.20679e-05 25 1.42109e-14 0 -1.7011e-20 6.7269e-14 1.4489e-05 -15 30 0 7.99999 3.49319e-06 -1.73614e-05 -25 0 -1.42109e-14 1.1072e-05 -6.90829e-06 2.94356e-05 -25 0 0 2.55508e-06 3.41509e-06 -1.20742e-05 10 -10 0 0 0 -0 0 -35 0 -0 -6.83019e-06 -0 0 -40 0 0 6.83019e-06 -0 -10 -10 0 3.41509e-06 0 -0 0 -35 0 2.27821e-05 -0.000116595 -7.14154e-06 -1.42109e-14 -40 0 -0.00290255 6.83019e-06 -0 
-52.0471 85.2027 -84.5302 -1.91346 0.399782 93.8591 0 10 0 1.31291 7.85277 1.03664 0 30 0 -6.16281 -9.99598 -4.86504 1.42109e-14 8 0 4.70123 18.4887 -5.97126 15 30 -7.10543e-15 -88.5976 22.8539 -5.40472 25 0 0 16.1909 -4.1951 -28.879 25 1.42109e-14 0 3.39045e-06 -13.1703 1.48804e-05 -15 30 1.42109e-14 84.3213 14.348 1.07868 -25 0 -7.10543e-15 -15.1938 -3.66755 26.997 -25 0 0 7.60248e-06 22.6865 -1.30867e-05 10 -10 0 3.22394 -12.4201 -12.5943 1.42109e-14 -35 0 0.0928309 23.7776 -0.440631 0 -40 -1.42109e-14 3.02898 -16.0889 10.8977 -10 -10 0 -9.53363 5.20708 -7.75193 7.10543e-15 -35 -1.42109e-14 2.27821e-05 -0.000116595 -7.14154e-06 0 -40 0 -0.841328 -5.90938 -8.08997 
-51.624 85.1955 -84.1479 -1.99696 0.413249 94.4223 0 10 -7.10543e-15 1.56608 6.95678 0.911315 1.42109e-14 30 -7.10543e-15 -6.05241 -10.0297 -4.82535 1.42109e-14 8 0 4.89798 17.7942 -5.83976 15 30 7.10543e-15 -90.7126 17.287 -5.96793 25 0 0 13.8216 -3.00764 -24.4428 25 0 0 2.31856e-06 -9.09149 1.46734e-05 -15 30 -7.10543e-15 83.814 15.6827 0.625518 -25 0 0 -14.7087 -3.42565 26.0894 -25 0 7.10543e-15 7.51517e-06 22.3329 -1.30533e-05 10 -10 0 3.36524 -12.1192 -13.4076 1.42109e-14 -35 7.10543e-15 0.089484 23.4235 -0.433239 0 -40 1.42109e-14 3.16996 -16.1115 11.3725 -10 -10 0 -9.13894 5.65938 -8.32138 -1.42109e-14 -35 0 2.27821e-05 -0.000116595 -7.14154e-06 1.42109e-14 -40 -1.42109e-14 -0.908927 -6.36598 -8.11723 
-51.2108 85.1795 -83.7981 -2.1678 0.376167 95.1134 1.42109e-14 10 7.10543e-15 1.70332 5.98197 0.529955 0 30 0 -5.67372 -10.1495 -4.79482 -1.42109e-14 8 0 5.07452 17.0673 -5.69938 15 30 0 -92.3019 11.9622 -6.01999 25 -1.42109e-14 -7.10543e-15 11.6867 -2.12453 -20.5391 25 -1.42109e-14 0 1.51526e-06 -5.97028 1.4568e-05 -15 30 7.10543e-15 83.2803 17.5142 0.0696198 -25 0 -1.42109e-14 -14.1968 -3.18075 25.1375 -25 0 0 7.17746e-06 20.9484 -1.29287e-05 10 -10 7.10543e-15 3.46637 -11.9264 -14.5759 1.42109e-14 -35 0 0.0862923 23.0991 -0.426617 1.42109e-14 -40 -1.42109e-14 3.38679 -16.2017 12.059 -10 -10 7.10543e-15 -8.69237 6.09442 -9.03417 -7.10543e-15 -35 0 2.27821e-05 -0.000116595 -7.14154e-06 7.10543e-15 -40 0 -1.0194 -7.09655 -8.17293 
-50.8067 85.1707 -83.5391 -2.29355 0.30927 95.7555 -1.42109e-14 10 0 1.89922 5.11268 0.0921316 -1.42109e-14 30 0 -5.40886 -10.2908 -4.78805 1.42109e-14 8 -7.10543e-15 5.31193 16.2504 -5.58552 15 30 -7.10543e-15 -93.2841 7.78841 -5.53116 25 0 0 10.0096 -1.54633 -17.5209 25 0 3.55271e-15 1.01068e-06 -3.99018 1.45242e-05 -15 30 0 82.8648 18.1105 -0.265888 -25 0 3.55271e-15 -13.7003 -2.95289 24.2189 -25 0 7.10543e-15 6.95982e-06 20.0423 -1.28525e-05 10 -10 0 3.42153 -11.6865 -16.3097 0 -35 0 0.0850813 22.9184 -0.422842 0 -40 1.42109e-14 3.81567 -16.6596 13.1763 -10 -10 0 -8.32594 6.50671 -9.69338 0 -35 1.42109e-14 2.27821e-05 -0.000116595 -7.14154e-06 0 -40 0 -1.10158 -7.82938 -8.0136 
-50.4455 85.1682 -83.328 -2.37783 0.24136 96.0842 0 10 7.10543e-15 2.07887 4.45635 -0.0306041 0 30 -2.13163e-14 -5.30524 -10.3737 -4.78834 0 8 0 5.68724 15.1722 -5.61177 15 30 -7.10543e-15 -93.8424 4.01998 -4.76436 25 0 0 8.82103 -1.19518 -15.403 25 0 0 3.58537e-07 -1.41752 1.44935e-05 -15 30 -1.42109e-14 82.9398 15.5823 -0.132961 -25 0 0 -13.278 -2.76664 23.4415 -25 0 -7.10543e-15 7.34095e-06 21.622 -1.29881e-05 10 -10 0 3.33051 -11.3771 -18.1059 -1.42109e-14 -35 0 0.0848855 22.8261 -0.420668 1.42109e-14 -40 0 4.41974 -17.3828 14.5799 -10 -10 7.10543e-15 -8.05592 6.80644 -10.0353 0 -35 -1.42109e-14 2.27821e-05 -0.000116595 -7.14154e-06 -7.10543e-15 -40 0 -1.13558 -8.34621 -7.75653 
-50.1526 85.1606 -83.0905 -2.49239 0.157292 96.0995 -1.42109e-14 10 -7.10543e-15 2.11157 3.98193 0.100022 0 30 0 -5.16171 -10.423 -4.77172 0 8 -7.10543e-15 6.09729 13.9652 -5.71715 15 30 -7.10543e-15 -93.8813 0.80057 -3.87184 25 0 0 8.12337 -1.01111 -14.1669 25 1.42109e-14 0 -4.21772e-07 1.66739 1.44952e-05 -15 30 0 83.5862 11.0665 0.244246 -25 -1.42109e-14 1.42109e-14 -13.0703 -2.67746 23.06 -25 7.10543e-15 3.55271e-15 8.1562e-06 24.8862 -1.33101e-05 10 -10 -7.10543e-15 3.42689 -11.137 -19.1667 1.42109e-14 -35 1.42109e-14 0.0841898 22.7025 -0.418453 0 -40 0 4.90072 -17.9347 15.6303 -10 -10 7.10543e-15 -7.80323 6.93201 -10.0709 -7.10543e-15 -35 0 2.27821e-05 -0.000116595 -7.14154e-06 0 -40 0 -1.16374 -8.77485 -7.5662 
-49.9127 85.1438 -82.8466 -2.66219 0.00365839 95.9992 0 10 0 2.11564 3.57919 0.170073 0 30 0 -4.95046 -10.5202 -4.72687 -1.42109e-14 8 7.10543e-15 6.31378 13.0451 -5.73153 15 30 -7.10543e-15 -93.3321 -0.0576085 -2.7651 25 0 0 7.8827 -0.951281 -13.7416 25 0 7.10543e-15 -6.74014e-07 2.66342 1.45047e-05 -15 30 0 84.2955 7.80135 0.416599 -25 -1.42109e-14 -7.10543e-15 -13.074 -2.67847 23.0667 -25 0 -3.55271e-15 8.63909e-06 26.7429 -1.35204e-05 10 -10 7.10543e-15 3.75388 -11.0343 -19.5507 0 -35 0 0.0826575 22.5364 -0.41496 0 -40 0 5.14386 -18.1792 16.1626 -10 -10 0 -7.48674 6.89839 -10 0 -35 0 2.27821e-05 -0.000116595 -7.14154e-06 0 -40 0 -1.19192 -9.15581 -7.43158 
-49.6971 85.128 -82.6717 -2.82801 -0.175237 95.8698 0 10 0 2.23571 3.22042 0.169617 0 30 7.10543e-15 -4.88302 -10.6662 -4.67559 1.42109e-14 8 7.10543e-15 6.33168 12.5918 -5.6674 15 30 0 -92.5899 1.6721 -1.49637 25 0 7.10543e-15 7.95762 -0.969668 -13.8738 25 -1.42109e-14 3.55271e-15 -2.01333e-07 0.796104 1.44904e-05 -15 30 7.10543e-15 84.6586 6.58556 0.311137 -25 0 0 -13.078 -2.68078 23.0743 -25 -7.10543e-15 -1.42109e-14 8.5741e-06 26.4964 -1.34913e-05 10 -10 7.10543e-15 4.01759 -10.9023 -20.2232 -1.42109e-14 -35 0 0.0807543 22.3656 -0.410135 0 -40 0 5.48607 -18.4539 16.944 -10 -10 0 -7.15346 6.79301 -9.89846 0 -35 0 2.27821e-05 -0.000116595 -7.14154e-06 0 -40 0 -1.20757 -9.26519 -7.4412 
-49.5004 85.1108 -82.5653 -2.94447 -0.214746 95.6143 1.42109e-14 10 -7.10543e-15 2.28153 2.97056 0.312683 0 30 0 -4.98943 -10.7886 -4.64947 1.42109e-14 8 0 6.36889 12.3651 -5.67547 15 30 7.10543e-15 -92.0126 4.00146 -0.331504 25 0 -7.10543e-15 8.18223 -1.02603 -14.2711 25 0 0 4.79692e-07 -1.89622 1.4497e-05 -15 30 0 84.9252 5.55188 0.263879 -25 0 7.10543e-15 -12.9462 -2.62498 22.8327 -25 0 -5.32907e-15 8.56697e-06 26.4693 -1.34881e-05 10 -10 -7.10543e-15 3.94399 -10.5749 -21.6086 1.42109e-14 -35 0 0.0785353 22.1546 -0.404826 0 -40 0 6.18619 -18.9794 18.4936 -10 -10 -7.10543e-15 -6.98151 6.68811 -9.6621 7.10543e-15 -35 0 2.27821e-05 -0.000116595 -7.14154e-06 7.10543e-15 -40 1.42109e-14 -1.22318 -9.05133 -7.71097 
